{"title":"Cult.S01E11.720p.HDTV.X264-DIMENSION[P2PDL]","uid":8651855,"size":931630684,"categoryP":"video","categoryS":"hd___tv_shows","magnet":"?xt=urn:btih:634cd8ef8bfedcfa4f53f4d156ab31b14e1798ad&amp;dn=Cult.S01E11.720p.HDTV.X264-DIMENSION%5BP2PDL%5D&amp;tr=udp%3A%2F%2Ftracker.openbittorrent.com%3A80&amp;tr=udp%3A%2F%2Fopen.demonii.com%3A1337&amp;tr=udp%3A%2F%2Ftracker.coppersurfer.tk%3A6969&amp;tr=udp%3A%2F%2Fexodus.desync.com%3A6969","seeders":1,"leechers":0,"uploader":null,"files":2,"time":1373127197,"description":"Cult.S01E11.720p.HDTV.X264-DIMENSION\nAired 05.07.2013\n\n&quot;Flip the Script&quot;\n\nJeff and Skye question Dr. Kimble's\nteaching assistant, Allegra, and the\nthree discover that Kimble's lab has\nbeen ransacked. Allegra identifies\nPhillip Kellian's manuscript as being\nalmost identical to one of Kimble's.\nSkye discovers that Stuart opened a\nproduction company on the Cult studio\nlot, so they break into Stuart's\noffices and discover a surveillance\nroom with hidden camera feeds. On the\nshow, Kelly worries about Andy's\ngrowing fear of Meadow. Kelly\naccompanies Meadow to therapy, and it\nis revealed that they witnessed their\nown parents' murder as young girls.\n\nGeneral\nUnique ID                                : 239865530294171941643669929466018627768 (0xB4746BB5BF31F695BEA38B3D03E780Bcool1.gif\nComplete name                            : Cult.S01E11.720p.HDTV.X264-DIMENSION.mkv\nFormat                                   : Matroska\nFormat version                           : Version 2\nFile size                                : 888 MiB\nDuration                                 : 41mn 49s\nOverall bit rate                         : 2 970 Kbps\nEncoded date                             : UTC 2013-07-05 18:59:33\nWriting application                      : mkvmerge v3.1.0 ('Happy up here'wink.gif built on Jan 19 2010 12:09:24\nWriting library                          : libebml v0.7.9 + libmatroska v0.8.1\n\nVideo\nID                                       : 1\nFormat                                   : AVC\nFormat/Info                              : Advanced Video Codec\nFormat profile                           : &lt;a class=&quot;__cf_email__&quot; href=&quot;/cdn-cgi/l/email-protection&quot; data-cfemail=&quot;1a52737d725a562e342b&quot;&gt;[email&amp;#160;protected]&lt;/a&gt;&lt;script cf-hash='f9e31' type=&quot;text/javascript&quot;&gt;\n/* &lt;![CDATA[ */!function(){try{var t=&quot;currentScript&quot;in document?document.currentScript:function(){for(var t=document.getElementsByTagName(&quot;script&quot;),e=t.length;e--;)if(t[e].getAttribute(&quot;cf-hash&quot;))return t[e]}();if(t&amp;&amp;t.previousSibling){var e,r,n,i,c=t.previousSibling,a=c.getAttribute(&quot;data-cfemail&quot;);if(a){for(e=&quot;&quot;,r=parseInt(a.substr(0,2),16),n=2;a.length-n;n+=2)i=parseInt(a.substr(n,2),16)^r,e+=String.fromCharCode(i);e=document.createTextNode(e),c.parentNode.replaceChild(e,c)}}}catch(u){}}();/* ]]&gt; */&lt;/script&gt;\nFormat settings, CABAC                   : Yes\nFormat settings, ReFrames                : 8 frames\nCodec ID                                 : V_MPEG4/ISO/AVC\nDuration                                 : 41mn 49s\nBit rate                                 : 2 527 Kbps\nWidth                                    : 1 280 pixels\nHeight                                   : 720 pixels\nDisplay aspect ratio                     : 16:9\nFrame rate mode                          : Constant\nFrame rate                               : 23.976 fps\nColor space                              : YUV\nChroma subsampling                       : 4:2:0\nBit depth                                : 8 bits\nScan type                                : Progressive\nBits/(Pixel*Frame)                       : 0.114\nStream size                              : 756 MiB (85%)\nWriting library                          : x264 core 133 r2334 a3ac64b\nEncoding settings                        : cabac=1 / ref=8 / deblock=1:-2:-2 / analyse=0x3:0x113 / me=umh / subme=9 / psy=1 / psy_rd=1.00:0.00 / mixed_ref=1 / me_range=24 / chroma_me=1 / trellis=1 / 8x8dct=1 / cqm=0 / deadzone=21,11 / fast_pskip=0 / chroma_qp_offset=-2 / threads=18 / lookahead_threads=2 / sliced_threads=0 / nr=0 / decimate=1 / interlaced=0 / bluray_compat=0 / constrained_intra=0 / bframes=5 / b_pyramid=2 / b_adapt=2 / b_bias=0 / direct=3 / weightb=1 / open_gop=0 / weightp=2 / keyint=250 / keyint_min=23 / scenecut=40 / intra_refresh=0 / rc_lookahead=50 / rc=crf / mbtree=1 / crf=18.0 / qcomp=0.60 / qpmin=0 / qpmax=69 / qpstep=4 / ip_ratio=1.40 / aq=1:1.00\nLanguage                                 : English\nDefault                                  : No\nForced                                   : No\n\nAudio\nID                                       : 2\nFormat                                   : AC-3\nFormat/Info                              : Audio Coding 3\nMode extension                           : CM (complete main)\nFormat settings, Endianness              : Big\nCodec ID                                 : A_AC3\nDuration                                 : 41mn 49s\nBit rate mode                            : Constant\nBit rate                                 : 384 Kbps\nChannel(s)                               : 6 channels\nChannel positions                        : Front: L C R, Side: L R, LFE\nSampling rate                            : 48.0 KHz\nBit depth                                : 16 bits\nCompression mode                         : Lossy\nDelay relative to video                  : 196ms\nStream size                              : 115 MiB (13%)\nDefault                                  : Yes\nForced                                   : No","torrent":{"xt":"urn:btih:634cd8ef8bfedcfa4f53f4d156ab31b14e1798ad","amp;dn":"Cult.S01E11.720p.HDTV.X264-DIMENSION%5BP2PDL%5D","amp;tr":["udp%3A%2F%2Ftracker.openbittorrent.com%3A80","udp%3A%2F%2Fopen.demonii.com%3A1337","udp%3A%2F%2Ftracker.coppersurfer.tk%3A6969","udp%3A%2F%2Fexodus.desync.com%3A6969"],"infoHash":"634cd8ef8bfedcfa4f53f4d156ab31b14e1798ad","infoHashBuffer":{"type":"Buffer","data":[99,76,216,239,139,254,220,250,79,83,244,209,86,171,49,177,78,23,152,173]},"announce":[],"urlList":[]}}